# xmcd
#
# Track frame offsets:
#	150
#	16935
#	33752
#	46507
#	62035
#	79005
#	97300
#	112850
#	131115
#	148580
#
# Disc length: 2249 seconds
#
# Revision: 1494614037
# Processed by: cddbd v1.5.2PL0 Copyright (c) Steve Scherf et al.
# Submitted via: EZCDAudioConverter 8.5.0.1
#
DISCID=7a08c70a
DTITLE=Little Big Town
DYEAR=2002
DGENRE=Country
TTITLE0=Pontiac
TTITLE1=Everything Changes
TTITLE2=Don't Waste My Time
TTITLE3=Still
TTITLE4=Never Felt Love
TTITLE5=Tryin'
TTITLE6=Stay
TTITLE7=Somewhere Far Away
TTITLE8=A Thousand Years
TTITLE9=From This Dream
EXTD=
EXTT0=
EXTT1=
EXTT2=
EXTT3=
EXTT4=
EXTT5=
EXTT6=
EXTT7=
EXTT8=
EXTT9=
PLAYORDER=
